<?xml version="1.0" standalone="no"?>
<!DOCTYPE svg PUBLIC "-//W3C//DTD SVG 20010904//EN"
 "http://www.w3.org/TR/2001/REC-SVG-20010904/DTD/svg10.dtd">
<svg version="1.0" xmlns="http://www.w3.org/2000/svg"
 width="900.000000pt" height="900.000000pt" viewBox="0 0 636.000000 140.000000"
 preserveAspectRatio="xMidYMid meet">
<g transform="translate(0.000000,418.000000) scale(0.100000,-0.100000)"
fill="#000000" stroke="none">
<path d="M0 2090 l0 -2090 1930 0 1930 0 0 2090 0 2090 -1930 0 -1930 0 0
-2090z m2097 1915 c298 -51 587 -192 807 -394 240 -220 409 -517 478 -838 20
-95 23 -134 22 -328 0 -188 -4 -234 -22 -319 -137 -619 -604 -1082 -1226
-1218 -86 -19 -132 -22 -316 -23 -186 0 -229 3 -316 22 -626 139 -1087 597
-1226 1219 -19 86 -22 129 -23 324 0 200 3 237 23 329 70 313 223 587 447 802
262 250 576 397 941 439 101 11 298 4 411 -15z m17 -3351 c19 -7 21 -35 4 -52
-30 -30 -77 3 -57 40 10 19 26 22 53 12z m-484 -104 c0 -55 4 -102 10 -105 6
-3 10 -17 10 -31 0 -22 -4 -25 -32 -22 -46 4 -58 34 -58 149 0 53 2 98 5 101
3 3 19 5 35 6 l30 1 0 -99z m-130 67 c27 -14 39 -59 21 -81 -8 -10 -7 -17 4
-26 22 -18 19 -73 -6 -96 -15 -13 -40 -20 -90 -22 -77 -5 -70 -14 -75 88 -1
30 0 76 3 103 l5 47 56 0 c32 0 68 -6 82 -13z m314 -63 c20 -21 26 -37 26 -69
0 -57 -24 -85 -77 -92 -37 -5 -46 -2 -73 25 -41 42 -42 92 -1 133 39 38 88 40
125 3z m224 3 c2 -10 -4 -24 -14 -31 -9 -7 -14 -17 -11 -23 11 -18 -17 -42
-58 -52 l-40 -9 40 -1 c83 -2 115 -63 53 -102 -63 -39 -174 -8 -148 41 11 20
13 83 4 127 -5 24 -1 36 15 52 19 19 31 21 89 19 55 -2 67 -6 70 -21z m87 -72
l0 -90 -32 -3 -33 -3 0 96 0 96 33 -3 32 -3 0 -90z m195 75 c5 -8 10 -50 10
-93 l0 -78 -32 3 -33 3 -3 63 c-4 82 -25 79 -32 -4 -5 -58 -6 -59 -35 -59
l-30 0 -3 92 -3 91 76 -2 c55 -1 79 -6 85 -16z"/>
<path d="M1700 3979 c-629 -56 -1168 -507 -1339 -1120 -52 -188 -67 -454 -36
-644 54 -334 206 -629 441 -856 111 -106 180 -159 314 -238 229 -135 478 -201
759 -201 182 0 310 20 476 75 156 51 238 91 378 185 335 224 571 577 654 980
27 131 24 470 -5 603 -120 542 -497 966 -1012 1140 -130 44 -225 64 -371 77
-125 11 -123 11 -259 -1z m295 -29 c194 -23 357 -70 517 -151 404 -204 689
-563 792 -999 83 -349 44 -692 -115 -1015 -346 -703 -1166 -1020 -1904 -736
-288 111 -572 351 -731 617 -196 328 -264 703 -194 1065 29 150 65 257 136
397 280 558 888 891 1499 822z"/>
<path d="M1715 3914 c-181 -27 -238 -39 -332 -70 -148 -50 -314 -135 -413
-213 -215 -169 -354 -340 -461 -567 -94 -199 -147 -459 -135 -670 15 -280 93
-520 240 -743 79 -119 109 -156 208 -253 209 -202 487 -343 773 -393 133 -23
357 -23 490 0 539 93 995 493 1154 1011 50 163 65 262 65 434 0 487 -222 913
-626 1202 -155 111 -398 213 -581 244 -92 15 -326 26 -382 18z m340 -599 c172
-26 262 -63 348 -144 169 -158 125 -515 -78 -641 l-36 -22 68 -34 c133 -64
205 -164 226 -311 14 -92 -2 -212 -37 -289 -48 -104 -175 -210 -308 -255 -128
-43 -190 -48 -625 -49 l-413 0 0 880 0 880 376 0 c286 0 401 -4 479 -15z"/>
<path d="M1680 2964 c-1 -5 -1 -79 -1 -164 l0 -155 113 0 c132 1 186 20 227
81 33 48 35 130 5 171 -37 51 -86 67 -221 71 -68 3 -123 0 -123 -4z"/>
<path d="M1680 2115 l0 -185 120 0 c135 0 205 12 252 43 40 27 78 98 78 147 0
53 -38 121 -80 141 -48 25 -146 39 -267 39 l-103 0 0 -185z"/>
<path d="M1420 555 c0 -8 9 -15 20 -15 11 0 20 7 20 15 0 8 -9 15 -20 15 -11
0 -20 -7 -20 -15z"/>
<path d="M1427 484 c-16 -16 -6 -34 19 -34 19 0 25 5 22 17 -3 19 -29 29 -41
17z"/>
<path d="M1734 506 c-9 -24 0 -51 19 -54 14 -3 17 4 17 32 0 26 -4 36 -15 36
-9 0 -18 -6 -21 -14z"/>
<path d="M1930 510 c0 -11 5 -20 10 -20 6 0 10 9 10 20 0 11 -4 20 -10 20 -5
0 -10 -9 -10 -20z"/>
<path d="M1920 381 c0 -5 6 -11 13 -13 17 -7 38 2 31 13 -7 12 -44 12 -44 0z"/>
</g>
</svg>
